# xmcd
#
# Track frame offsets:
#	150
#	18285
#	38562
#	61320
#	81490
#	95160
#	111747
#	127570
#	139300
#	159910
#	180477
#	195690
#	215972
#
# Disc length: 3147 seconds
#
# Revision: 0
# Processed by: cddbd v1.5.2PL0 Copyright (c) Steve Scherf et al.
# Submitted via: audiograbber 1.83.01
#
DISCID=b70c490d
DTITLE=Bryan Adams - Millennium
DYEAR=1900
DGENRE=
TTITLE0=Summer of '69
TTITLE1=Back to You
TTITLE2=Cuts Like a Knife
TTITLE3=I'm Ready
TTITLE4=Fits Ya Good
TTITLE5=When You Love Someone
TTITLE6=18 Til I Die
TTITLE7=I Think About You
TTITLE8=If Ya Wanna Be Bad
TTITLE9=The Only Thing That Looks Good On Me is You
TTITLE10=A Little Love
TTITLE11=Heaven
TTITLE12=I'll Always Be Right There
EXTD=
EXTT0=
EXTT1=
EXTT2=
EXTT3=
EXTT4=
EXTT5=
EXTT6=
EXTT7=
EXTT8=
EXTT9=
EXTT10=
EXTT11=
EXTT12=
PLAYORDER=
